<svg width="21" height="21" viewBox="0 0 21 21" fill="none" xmlns="http://www.w3.org/2000/svg">
<path d="M4.87988 12.1018H16.8799V10.1018H4.87988V12.1018ZM4.87988 9.10181H16.8799V7.10181H4.87988V9.10181ZM4.87988 6.10181H16.8799V4.10181H4.87988V6.10181ZM20.8799 20.1018L16.8799 16.1018H2.87988C2.32988 16.1018 1.85905 15.906 1.46738 15.5143C1.07572 15.1226 0.879883 14.6518 0.879883 14.1018V2.10181C0.879883 1.55181 1.07572 1.08097 1.46738 0.689307C1.85905 0.29764 2.32988 0.101807 2.87988 0.101807H18.8799C19.4299 0.101807 19.9007 0.29764 20.2924 0.689307C20.684 1.08097 20.8799 1.55181 20.8799 2.10181V20.1018ZM2.87988 14.1018H17.7299L18.8799 15.2268V2.10181H2.87988V14.1018Z" fill="#1C1B1F"/>
</svg>
