<svg width="17" height="5" viewBox="0 0 17 5" fill="none" xmlns="http://www.w3.org/2000/svg">
<path d="M2.5 4.5C1.95 4.5 1.47917 4.30417 1.0875 3.9125C0.695833 3.52083 0.5 3.05 0.5 2.5C0.5 1.95 0.695833 1.47917 1.0875 1.0875C1.47917 0.695833 1.95 0.5 2.5 0.5C3.05 0.5 3.52083 0.695833 3.9125 1.0875C4.30417 1.47917 4.5 1.95 4.5 2.5C4.5 3.05 4.30417 3.52083 3.9125 3.9125C3.52083 4.30417 3.05 4.5 2.5 4.5ZM8.5 4.5C7.95 4.5 7.47917 4.30417 7.0875 3.9125C6.69583 3.52083 6.5 3.05 6.5 2.5C6.5 1.95 6.69583 1.47917 7.0875 1.0875C7.47917 0.695833 7.95 0.5 8.5 0.5C9.05 0.5 9.52083 0.695833 9.9125 1.0875C10.3042 1.47917 10.5 1.95 10.5 2.5C10.5 3.05 10.3042 3.52083 9.9125 3.9125C9.52083 4.30417 9.05 4.5 8.5 4.5ZM14.5 4.5C13.95 4.5 13.4792 4.30417 13.0875 3.9125C12.6958 3.52083 12.5 3.05 12.5 2.5C12.5 1.95 12.6958 1.47917 13.0875 1.0875C13.4792 0.695833 13.95 0.5 14.5 0.5C15.05 0.5 15.5208 0.695833 15.9125 1.0875C16.3042 1.47917 16.5 1.95 16.5 2.5C16.5 3.05 16.3042 3.52083 15.9125 3.9125C15.5208 4.30417 15.05 4.5 14.5 4.5Z" fill="#1C1B1F"/>
</svg>
