<svg width="21" height="21" viewBox="0 0 21 21" fill="none" xmlns="http://www.w3.org/2000/svg">
<path d="M4.22793 15.2494C5.07793 14.5994 6.02793 14.0869 7.07793 13.7119C8.12793 13.3369 9.22793 13.1494 10.3779 13.1494C11.5279 13.1494 12.6279 13.3369 13.6779 13.7119C14.7279 14.0869 15.6779 14.5994 16.5279 15.2494C17.1113 14.5661 17.5654 13.7911 17.8904 12.9244C18.2154 12.0577 18.3779 11.1327 18.3779 10.1494C18.3779 7.93275 17.5988 6.04525 16.0404 4.48691C14.4821 2.92858 12.5946 2.14941 10.3779 2.14941C8.16126 2.14941 6.27376 2.92858 4.71543 4.48691C3.1571 6.04525 2.37793 7.93275 2.37793 10.1494C2.37793 11.1327 2.54043 12.0577 2.86543 12.9244C3.19043 13.7911 3.6446 14.5661 4.22793 15.2494ZM10.3779 11.1494C9.3946 11.1494 8.56543 10.8119 7.89043 10.1369C7.21543 9.46191 6.87793 8.63275 6.87793 7.64941C6.87793 6.66608 7.21543 5.83691 7.89043 5.16191C8.56543 4.48691 9.3946 4.14941 10.3779 4.14941C11.3613 4.14941 12.1904 4.48691 12.8654 5.16191C13.5404 5.83691 13.8779 6.66608 13.8779 7.64941C13.8779 8.63275 13.5404 9.46191 12.8654 10.1369C12.1904 10.8119 11.3613 11.1494 10.3779 11.1494ZM10.3779 20.1494C8.9946 20.1494 7.6946 19.8869 6.47793 19.3619C5.26126 18.8369 4.20293 18.1244 3.30293 17.2244C2.40293 16.3244 1.69043 15.2661 1.16543 14.0494C0.64043 12.8327 0.37793 11.5327 0.37793 10.1494C0.37793 8.76608 0.64043 7.46608 1.16543 6.24941C1.69043 5.03275 2.40293 3.97441 3.30293 3.07441C4.20293 2.17441 5.26126 1.46191 6.47793 0.936914C7.6946 0.411914 8.9946 0.149414 10.3779 0.149414C11.7613 0.149414 13.0613 0.411914 14.2779 0.936914C15.4946 1.46191 16.5529 2.17441 17.4529 3.07441C18.3529 3.97441 19.0654 5.03275 19.5904 6.24941C20.1154 7.46608 20.3779 8.76608 20.3779 10.1494C20.3779 11.5327 20.1154 12.8327 19.5904 14.0494C19.0654 15.2661 18.3529 16.3244 17.4529 17.2244C16.5529 18.1244 15.4946 18.8369 14.2779 19.3619C13.0613 19.8869 11.7613 20.1494 10.3779 20.1494ZM10.3779 18.1494C11.2613 18.1494 12.0946 18.0202 12.8779 17.7619C13.6613 17.5036 14.3779 17.1327 15.0279 16.6494C14.3779 16.1661 13.6613 15.7952 12.8779 15.5369C12.0946 15.2786 11.2613 15.1494 10.3779 15.1494C9.4946 15.1494 8.66126 15.2786 7.87793 15.5369C7.0946 15.7952 6.37793 16.1661 5.72793 16.6494C6.37793 17.1327 7.0946 17.5036 7.87793 17.7619C8.66126 18.0202 9.4946 18.1494 10.3779 18.1494ZM10.3779 9.14941C10.8113 9.14941 11.1696 9.00775 11.4529 8.72441C11.7363 8.44108 11.8779 8.08275 11.8779 7.64941C11.8779 7.21608 11.7363 6.85775 11.4529 6.57441C11.1696 6.29108 10.8113 6.14941 10.3779 6.14941C9.9446 6.14941 9.58626 6.29108 9.30293 6.57441C9.0196 6.85775 8.87793 7.21608 8.87793 7.64941C8.87793 8.08275 9.0196 8.44108 9.30293 8.72441C9.58626 9.00775 9.9446 9.14941 10.3779 9.14941Z" fill="#1C1B1F"/>
</svg>
